<?xml version="1.0" encoding="UTF-8" standalone="no"?>
<svg
   width="24"
   height="24"
   viewBox="0 0 24 24"
   fill="currentColor"
   class="lucide lucide-memory-stick"
   version="1.1"
   id="svg9"
   xmlns="http://www.w3.org/2000/svg"
   xmlns:svg="http://www.w3.org/2000/svg">
  <defs
     id="defs9" />
  <path
     d="m 6,15 a 1,1 0 0 0 -1,1 v 3 a 1,1 0 0 0 1,1 1,1 0 0 0 1,-1 V 16 A 1,1 0 0 0 6,15 Z"
     id="path1" />
  <path
     d="m 10,15 a 1,1 0 0 0 -1,1 v 3 a 1,1 0 0 0 1,1 1,1 0 0 0 1,-1 v -3 a 1,1 0 0 0 -1,-1 z"
     id="path2" />
  <path
     d="m 14,15 a 1,1 0 0 0 -1,1 v 3 a 1,1 0 0 0 1,1 1,1 0 0 0 1,-1 v -3 a 1,1 0 0 0 -1,-1 z"
     id="path3" />
  <path
     d="m 18,15 a 1,1 0 0 0 -1,1 v 3 a 1,1 0 0 0 1,1 1,1 0 0 0 1,-1 v -3 a 1,1 0 0 0 -1,-1 z"
     id="path4" />
  <path
     d="M 8,8 A 1,1 0 0 0 7,9 v 2 a 1,1 0 0 0 1,1 1,1 0 0 0 1,-1 V 9 A 1,1 0 0 0 8,8 Z"
     id="path5" />
  <path
     d="m 16,8 a 1,1 0 0 0 -1,1 v 2 a 1,1 0 0 0 1,1 1,1 0 0 0 1,-1 V 9 A 1,1 0 0 0 16,8 Z"
     id="path6" />
  <path
     d="m 12,8 a 1,1 0 0 0 -1,1 v 2 a 1,1 0 0 0 1,1 1,1 0 0 0 1,-1 V 9 A 1,1 0 0 0 12,8 Z"
     id="path7" />
  <path
     d="m 2,14 a 1,1 0 0 0 -1,1 1,1 0 0 0 1,1 h 20 a 1,1 0 0 0 1,-1 1,1 0 0 0 -1,-1 z"
     id="path8" />
  <path
     d="M 4,4 C 2.354992,4 1,5.354992 1,7 v 1.0625 a 1.0001,1.0001 0 0 0 0.7167969,0.9589844 c 0.5398407,0.1590166 0.71875,0.5322103 0.71875,0.9609375 0,0.4287271 -0.1789093,0.7999681 -0.71875,0.9589841 A 1.0001,1.0001 0 0 0 1,11.900391 V 17 c 0,1.645008 1.354992,3 3,3 h 16 c 1.645008,0 3,-1.354992 3,-3 v -5.0625 a 1.0001,1.0001 0 0 0 -0.716797,-0.958984 c -0.539841,-0.159017 -0.71875,-0.532211 -0.71875,-0.960938 0,-0.4287271 0.178909,-0.7999676 0.71875,-0.9589842 A 1.0001,1.0001 0 0 0 23,8.0996094 V 7 C 23,5.354992 21.645008,4 20,4 Z m 0,2 h 16 c 0.564129,0 1,0.4358712 1,1 v 0.6542969 c -0.848826,0.5777898 -1.435547,1.4276556 -1.435547,2.3632811 0,0.935626 0.586721,1.787445 1.435547,2.365235 V 17 c 0,0.564129 -0.435871,1 -1,1 H 4 C 3.4358712,18 3,17.564129 3,17 V 12.345703 C 3.8488262,11.767913 4.4355469,10.918048 4.4355469,9.9824219 4.4355469,9.0467962 3.8488262,8.1949774 3,7.6171875 V 7 C 3,6.4358712 3.4358712,6 4,6 Z"
     id="path9" />
</svg>
